HIERARCHY
ROOT Hips
{
	OFFSET 0.000000 97.167313 0.000000
	CHANNELS 6 Xposition Yposition Zposition Xrotation Yrotation Zrotation
	JOINT Spine
	{
		OFFSET 0.000000 13.784798 0.064400
		CHANNELS 3 Xrotation Yrotation Zrotation
		JOINT Spine1
		{
			OFFSET 0.000000 12.037903 0.404700
			CHANNELS 3 Xrotation Yrotation Zrotation
			JOINT Spine2
			{
				OFFSET 0.000000 17.795601 0.420200
				CHANNELS 3 Xrotation Yrotation Zrotation
				JOINT Neck
				{
					OFFSET 0.000000 39.131302 11.954600
					CHANNELS 3 Xrotation Yrotation Zrotation
					JOINT Head
					{
						OFFSET 0.000000 14.456192 15.627699
						CHANNELS 3 Xrotation Yrotation Zrotation
						JOINT HeadTop_End
						{
							OFFSET 0.000000 15.703506 7.603401
							CHANNELS 3 Xrotation Yrotation Zrotation
							End Site
							{
								OFFSET 0.000000 17.447403 0.000000
							}
						}
					}
				}
				JOINT LeftShoulder
				{
					OFFSET 17.399500 24.608795 1.168800
					CHANNELS 3 Xrotation Yrotation Zrotation
					JOINT LeftArm
					{
						OFFSET 18.980635 5.765305 1.818600
						CHANNELS 3 Xrotation Yrotation Zrotation
						JOINT LeftForeArm
						{
							OFFSET 49.290169 0.000000 0.000000
							CHANNELS 3 Xrotation Yrotation Zrotation
							JOINT LeftHand
							{
								OFFSET 31.562012 0.000000 0.000000
								CHANNELS 3 Xrotation Yrotation Zrotation
								JOINT LeftHandThumb1
								{
									OFFSET 6.133995 -4.388519 7.076070
									CHANNELS 3 Xrotation Yrotation Zrotation
									JOINT LeftHandThumb2
									{
										OFFSET 6.037666 -3.485840 3.485847
										CHANNELS 3 Xrotation Yrotation Zrotation
										JOINT LeftHandThumb3
										{
											OFFSET 6.496506 -3.750763 3.750761
											CHANNELS 3 Xrotation Yrotation Zrotation
											JOINT LeftHandThumb4
											{
												OFFSET 5.616882 -3.242905 3.242910
												CHANNELS 3 Xrotation Yrotation Zrotation
												End Site
												{
													OFFSET -1.254608 7.132141 0.375429
												}
											}
										}
									}
								}
								JOINT LeftHandPinky1
								{
									OFFSET 18.920792 -0.453171 -11.426712
									CHANNELS 3 Xrotation Yrotation Zrotation
									JOINT LeftHandPinky2
									{
										OFFSET 4.919586 0.000000 0.000000
										CHANNELS 3 Xrotation Yrotation Zrotation
										JOINT LeftHandPinky3
										{
											OFFSET 5.233047 0.000000 0.000000
											CHANNELS 3 Xrotation Yrotation Zrotation
											JOINT LeftHandPinky4
											{
												OFFSET 5.571716 0.000000 0.000000
												CHANNELS 3 Xrotation Yrotation Zrotation
												End Site
												{
													OFFSET -3.459808 4.342407 -0.466164
												}
											}
										}
									}
								}
								JOINT LeftHandRing1
								{
									OFFSET 22.726120 -0.094986 -6.500475
									CHANNELS 3 Xrotation Yrotation Zrotation
									JOINT LeftHandRing2
									{
										OFFSET 6.408615 0.000000 0.000000
										CHANNELS 3 Xrotation Yrotation Zrotation
										JOINT LeftHandRing3
										{
											OFFSET 6.150223 0.000000 0.000000
											CHANNELS 3 Xrotation Yrotation Zrotation
											JOINT LeftHandRing4
											{
												OFFSET 6.145386 0.000000 0.000000
												CHANNELS 3 Xrotation Yrotation Zrotation
												End Site
												{
													OFFSET -3.671402 4.923981 -0.202372
												}
											}
										}
									}
								}
								JOINT LeftHandMiddle1
								{
									OFFSET 23.373947 0.000000 0.000001
									CHANNELS 3 Xrotation Yrotation Zrotation
									JOINT LeftHandMiddle2
									{
										OFFSET 6.996567 0.000000 0.000000
										CHANNELS 3 Xrotation Yrotation Zrotation
										JOINT LeftHandMiddle3
										{
											OFFSET 7.015945 0.000000 0.000000
											CHANNELS 3 Xrotation Yrotation Zrotation
											JOINT LeftHandMiddle4
											{
												OFFSET 7.721573 0.000000 0.000000
												CHANNELS 3 Xrotation Yrotation Zrotation
												End Site
												{
													OFFSET -4.651108 6.158463 0.251582
												}
											}
										}
									}
								}
								JOINT LeftHandIndex1
								{
									OFFSET 21.310577 -0.490082 6.209344
									CHANNELS 3 Xrotation Yrotation Zrotation
									JOINT LeftHandIndex2
									{
										OFFSET 7.536453 0.000000 0.000000
										CHANNELS 3 Xrotation Yrotation Zrotation
										JOINT LeftHandIndex3
										{
											OFFSET 7.512344 0.000000 0.000000
											CHANNELS 3 Xrotation Yrotation Zrotation
											JOINT LeftHandIndex4
											{
												OFFSET 10.212402 0.000000 0.000001
												CHANNELS 3 Xrotation Yrotation Zrotation
												End Site
												{
													OFFSET -5.180801 8.690506 1.388433
												}
											}
										}
									}
								}
							}
						}
					}
				}
				JOINT RightShoulder
				{
					OFFSET -17.399500 24.608795 1.168800
					CHANNELS 3 Xrotation Yrotation Zrotation
					JOINT RightArm
					{
						OFFSET -18.980635 5.765305 1.818600
						CHANNELS 3 Xrotation Yrotation Zrotation
						JOINT RightForeArm
						{
							OFFSET -49.290169 0.000000 0.000000
							CHANNELS 3 Xrotation Yrotation Zrotation
							JOINT RightHand
							{
								OFFSET -31.562012 0.000000 0.000000
								CHANNELS 3 Xrotation Yrotation Zrotation
								JOINT RightHandThumb1
								{
									OFFSET -6.133995 -4.388519 7.076070
									CHANNELS 3 Xrotation Yrotation Zrotation
									JOINT RightHandThumb2
									{
										OFFSET -6.037666 -3.485840 3.485847
										CHANNELS 3 Xrotation Yrotation Zrotation
										JOINT RightHandThumb3
										{
											OFFSET -6.496506 -3.750763 3.750761
											CHANNELS 3 Xrotation Yrotation Zrotation
											JOINT RightHandThumb4
											{
												OFFSET -5.616882 -3.242905 3.242910
												CHANNELS 3 Xrotation Yrotation Zrotation
												End Site
												{
													OFFSET 1.254608 7.132141 0.375429
												}
											}
										}
									}
								}
								JOINT RightHandIndex1
								{
									OFFSET -21.310577 -0.490082 6.209344
									CHANNELS 3 Xrotation Yrotation Zrotation
									JOINT RightHandIndex2
									{
										OFFSET -7.536453 0.000000 0.000000
										CHANNELS 3 Xrotation Yrotation Zrotation
										JOINT RightHandIndex3
										{
											OFFSET -7.512344 0.000000 0.000000
											CHANNELS 3 Xrotation Yrotation Zrotation
											JOINT RightHandIndex4
											{
												OFFSET -10.212402 0.000000 0.000001
												CHANNELS 3 Xrotation Yrotation Zrotation
												End Site
												{
													OFFSET 5.180801 8.690506 1.388433
												}
											}
										}
									}
								}
								JOINT RightHandMiddle1
								{
									OFFSET -23.373947 0.000000 0.000001
									CHANNELS 3 Xrotation Yrotation Zrotation
									JOINT RightHandMiddle2
									{
										OFFSET -6.996567 0.000000 0.000000
										CHANNELS 3 Xrotation Yrotation Zrotation
										JOINT RightHandMiddle3
										{
											OFFSET -7.015945 0.000000 0.000000
											CHANNELS 3 Xrotation Yrotation Zrotation
											JOINT RightHandMiddle4
											{
												OFFSET -7.721573 0.000000 0.000000
												CHANNELS 3 Xrotation Yrotation Zrotation
												End Site
												{
													OFFSET 4.651108 6.158463 0.251582
												}
											}
										}
									}
								}
								JOINT RightHandRing1
								{
									OFFSET -22.726120 -0.094986 -6.500475
									CHANNELS 3 Xrotation Yrotation Zrotation
									JOINT RightHandRing2
									{
										OFFSET -6.408615 0.000000 0.000000
										CHANNELS 3 Xrotation Yrotation Zrotation
										JOINT RightHandRing3
										{
											OFFSET -6.150223 0.000000 0.000000
											CHANNELS 3 Xrotation Yrotation Zrotation
											JOINT RightHandRing4
											{
												OFFSET -6.145386 0.000000 0.000000
												CHANNELS 3 Xrotation Yrotation Zrotation
												End Site
												{
													OFFSET 3.671402 4.923981 -0.202372
												}
											}
										}
									}
								}
								JOINT RightHandPinky1
								{
									OFFSET -18.920792 -0.453171 -11.426712
									CHANNELS 3 Xrotation Yrotation Zrotation
									JOINT RightHandPinky2
									{
										OFFSET -4.919586 0.000000 0.000000
										CHANNELS 3 Xrotation Yrotation Zrotation
										JOINT RightHandPinky3
										{
											OFFSET -5.233047 0.000000 0.000000
											CHANNELS 3 Xrotation Yrotation Zrotation
											JOINT RightHandPinky4
											{
												OFFSET -5.571716 0.000000 0.000000
												CHANNELS 3 Xrotation Yrotation Zrotation
												End Site
												{
													OFFSET 3.459808 4.342407 -0.466164
												}
											}
										}
									}
								}
							}
						}
					}
				}
			}
		}
	}
	JOINT LeftUpLeg
	{
		OFFSET 19.899099 -7.885101 -3.429500
		CHANNELS 3 Xrotation Yrotation Zrotation
		JOINT LeftLeg
		{
			OFFSET 1.745560 -36.997807 10.304700
			CHANNELS 3 Xrotation Yrotation Zrotation
			JOINT LeftFoot
			{
				OFFSET -1.745558 -29.803308 -13.615400
				CHANNELS 3 Xrotation Yrotation Zrotation
				JOINT LeftToeBase
				{
					OFFSET 1.181900 -18.539904 15.226099
					CHANNELS 3 Xrotation Yrotation Zrotation
					JOINT LeftToe_End
					{
						OFFSET -0.863701 1.402801 16.534700
						CHANNELS 3 Xrotation Yrotation Zrotation
						End Site
						{
							OFFSET 0.000000 16.616566 0.000000
						}
					}
				}
			}
		}
	}
	JOINT RightUpLeg
	{
		OFFSET -19.899099 -7.885101 -3.429500
		CHANNELS 3 Xrotation Yrotation Zrotation
		JOINT RightLeg
		{
			OFFSET -1.745560 -36.997807 10.304700
			CHANNELS 3 Xrotation Yrotation Zrotation
			JOINT RightFoot
			{
				OFFSET 1.745558 -29.803308 -13.615400
				CHANNELS 3 Xrotation Yrotation Zrotation
				JOINT RightToeBase
				{
					OFFSET -1.181900 -18.539904 15.226099
					CHANNELS 3 Xrotation Yrotation Zrotation
					JOINT RightToe_End
					{
						OFFSET 0.863701 1.402801 16.534700
						CHANNELS 3 Xrotation Yrotation Zrotation
						End Site
						{
							OFFSET 0.000000 16.616566 0.000000
						}
					}
				}
			}
		}
	}
}
MOTION
Frames: 4
Frame Time: 0.033333
4.408375 68.806427 6.511971 -3.899626 17.495403 -3.443135 14.419359 -3.461036 -0.536193 4.465328 -0.782386 -1.491774 4.453213 -0.820392 -1.494992 5.881270 7.845252 -5.148907 -8.836145 38.903060 -5.392100 -0.000000 -0.000001 0.000000 0.445649 -0.733547 -3.667586 -37.156291 30.276162 -15.045969 -0.000021 -106.477513 -0.000011 -8.460286 -6.777777 -21.972413 -1.040024 3.640180 -3.510728 16.100697 31.113629 -15.117553 5.274360 38.848251 6.703267 0.000001 0.000001 0.000001 8.869263 7.747834 -73.630122 4.961093 2.522216 -73.809142 4.948445 6.605435 -73.650524 0.000003 -0.000000 -0.000007 4.948452 6.605445 -73.650510 4.948479 6.605428 -73.650538 4.948449 6.605417 -73.650524 0.000001 -0.000001 0.000003 4.946593 6.604909 -73.634316 4.950343 6.605971 -73.666718 4.948440 6.605427 -73.650538 -0.000001 0.000000 0.000008 4.948438 6.605416 -73.650510 4.948465 6.605452 -73.650538 4.948445 6.605427 -73.650517 0.000000 0.000001 0.000001 0.574561 4.165933 11.913159 30.407275 2.786953 1.339016 -0.000096 105.692383 0.000118 13.591502 -16.462303 6.701904 7.806721 -8.751171 13.107886 5.236193 -14.243342 -0.336406 1.269064 -36.067330 -5.396808 -0.000003 -0.000002 0.000004 4.126002 -6.351798 65.982708 4.126000 -6.351827 65.982680 4.126015 -6.351797 65.982701 -0.000003 0.000002 0.000004 4.126005 -6.351816 65.982701 4.126003 -6.351827 65.982687 4.126009 -6.351819 65.982701 0.000001 0.000001 -0.000001 4.126011 -6.351813 65.982708 4.126005 -6.351828 65.982687 4.126021 -6.351808 65.982708 -0.000003 -0.000000 -0.000003 4.126007 -6.351795 65.982708 4.126006 -6.351828 65.982680 4.126019 -6.351827 65.982721 0.000001 -0.000000 0.000002 -29.509231 13.875562 54.985434 59.217863 -17.962165 -7.263952 -26.269297 7.461363 -20.231715 -1.069663 -0.000008 -0.000006 -0.000000 -0.000000 -0.000000 -30.765808 12.267519 -12.668138 60.710997 12.023390 -7.578157 -26.691806 -9.131006 22.853997 -0.118196 0.000010 0.000008 0.000000 0.000002 0.000000 
4.411975 68.808807 6.512814 -3.911752 17.490147 -3.432616 14.424099 -3.446375 -0.522301 4.470693 -0.778927 -1.485212 4.458651 -0.816881 -1.488450 5.861849 7.846293 -5.160838 -8.857803 38.900769 -5.413778 -0.000001 0.000001 -0.000001 0.446200 -0.736418 -3.684292 -37.148426 30.269448 -15.094809 0.000007 -106.500469 -0.000002 -8.441211 -6.750834 -21.966373 -1.040024 3.640178 -3.510729 16.100694 31.113615 -15.117551 5.274362 38.848258 6.703263 -0.000001 -0.000000 -0.000001 8.869268 7.747836 -73.630129 4.961087 2.522213 -73.809142 4.948445 6.605437 -73.650531 -0.000002 0.000004 0.000002 4.948459 6.605444 -73.650510 4.948481 6.605433 -73.650545 4.948452 6.605418 -73.650524 -0.000003 0.000002 0.000002 4.946597 6.604906 -73.634316 4.950349 6.605971 -73.666718 4.948438 6.605426 -73.650531 0.000001 0.000000 0.000009 4.948451 6.605417 -73.650517 4.948463 6.605452 -73.650531 4.948447 6.605431 -73.650524 -0.000002 -0.000000 -0.000001 0.575017 4.167723 11.834180 30.404464 2.843509 1.395969 0.000002 105.631758 0.000051 13.591380 -16.478513 6.690462 7.806719 -8.751170 13.107879 5.236187 -14.243339 -0.336408 1.269066 -36.067330 -5.396817 -0.000000 0.000000 0.000006 4.126004 -6.351796 65.982715 4.126004 -6.351823 65.982680 4.126016 -6.351801 65.982701 -0.000006 -0.000003 0.000001 4.126005 -6.351817 65.982701 4.126001 -6.351824 65.982687 4.126008 -6.351819 65.982694 -0.000002 -0.000001 -0.000004 4.126009 -6.351815 65.982708 4.126003 -6.351826 65.982694 4.126020 -6.351806 65.982708 -0.000002 0.000001 -0.000005 4.126003 -6.351800 65.982701 4.126005 -6.351831 65.982680 4.126023 -6.351824 65.982721 -0.000001 -0.000002 0.000005 -29.481569 13.888099 54.967122 59.214175 -17.961601 -7.260444 -26.279790 7.476086 -20.229205 -1.076254 0.000016 -0.000007 -0.000000 -0.000001 0.000000 -30.737074 12.267990 -12.694109 60.692658 11.995565 -7.579861 -26.671037 -9.146245 22.921592 -0.083596 -0.000013 -0.000008 -0.000000 -0.000001 -0.000000 
4.415860 68.814125 6.510347 -3.926858 17.482457 -3.425025 14.430819 -3.435224 -0.513318 4.478532 -0.776806 -1.472290 4.466609 -0.814511 -1.475565 5.846842 7.850838 -5.176330 -8.915326 38.913913 -5.408161 -0.000000 -0.000001 0.000000 0.447853 -0.752011 -3.719724 -37.134123 30.275049 -15.118257 0.000048 -106.529211 0.000038 -8.405336 -6.897026 -21.983698 -1.040021 3.640181 -3.510728 16.100696 31.113626 -15.117555 5.274359 38.848255 6.703265 -0.000000 -0.000000 -0.000002 8.869263 7.747834 -73.630129 4.961091 2.522216 -73.809135 4.948444 6.605434 -73.650531 0.000001 -0.000000 0.000001 4.948453 6.605444 -73.650510 4.948480 6.605425 -73.650538 4.948444 6.605424 -73.650517 0.000001 -0.000001 0.000005 4.946597 6.604909 -73.634309 4.950345 6.605971 -73.666725 4.948440 6.605428 -73.650531 -0.000001 -0.000002 0.000004 4.948442 6.605418 -73.650517 4.948461 6.605453 -73.650531 4.948447 6.605428 -73.650524 -0.000001 0.000005 0.000002 0.575562 4.181848 11.707728 30.401766 2.917989 1.523073 -0.000090 105.538901 0.000134 13.622805 -16.450449 6.653697 7.806719 -8.751171 13.107888 5.236189 -14.243340 -0.336408 1.269065 -36.067330 -5.396812 0.000001 -0.000001 -0.000000 4.126007 -6.351796 65.982715 4.126007 -6.351823 65.982680 4.126016 -6.351799 65.982701 -0.000002 -0.000005 -0.000002 4.126005 -6.351816 65.982694 4.126001 -6.351826 65.982687 4.126008 -6.351821 65.982701 -0.000002 0.000001 -0.000002 4.126007 -6.351814 65.982715 4.126005 -6.351825 65.982687 4.126020 -6.351809 65.982708 -0.000003 0.000001 -0.000005 4.126002 -6.351802 65.982708 4.126001 -6.351828 65.982680 4.126020 -6.351821 65.982721 -0.000000 -0.000001 -0.000001 -29.444925 13.895794 54.941536 59.210309 -17.962520 -7.255505 -26.292564 7.506607 -20.223697 -1.084245 0.000000 0.000004 -0.000000 -0.000003 -0.000000 -30.703739 12.262905 -12.719393 60.657401 11.967492 -7.586526 -26.633850 -9.163690 23.011624 -0.037147 -0.000007 0.000006 -0.000000 -0.000004 -0.000000 
4.418962 68.818947 6.506940 -3.936623 17.471054 -3.416834 14.434988 -3.425941 -0.509370 4.485370 -0.774891 -1.463409 4.473537 -0.812405 -1.466726 5.831563 7.855235 -5.174715 -8.978698 38.932652 -5.380667 0.000001 -0.000001 0.000001 0.449185 -0.769081 -3.738580 -37.106782 30.291640 -15.140205 0.000009 -106.545658 -0.000013 -8.364341 -7.121980 -22.024929 -1.040023 3.640178 -3.510729 16.100696 31.113615 -15.117558 5.274360 38.848251 6.703264 0.000000 -0.000000 -0.000003 8.869258 7.747835 -73.630122 4.961092 2.522217 -73.809142 4.948443 6.605435 -73.650524 0.000002 0.000002 -0.000002 4.948454 6.605443 -73.650504 4.948476 6.605426 -73.650545 4.948449 6.605420 -73.650524 -0.000000 0.000000 0.000003 4.946592 6.604910 -73.634309 4.950347 6.605973 -73.666718 4.948438 6.605427 -73.650531 -0.000001 0.000001 0.000001 4.948443 6.605415 -73.650517 4.948462 6.605456 -73.650531 4.948447 6.605430 -73.650517 -0.000001 -0.000001 0.000001 0.575988 4.195790 11.604102 30.400953 2.975229 1.648230 -0.000145 105.461543 0.000156 13.662117 -16.414309 6.601917 7.806719 -8.751173 13.107882 5.236190 -14.243338 -0.336398 1.269067 -36.067330 -5.396804 -0.000005 0.000000 -0.000001 4.126003 -6.351801 65.982708 4.126003 -6.351823 65.982680 4.126013 -6.351803 65.982708 -0.000001 -0.000003 -0.000001 4.126003 -6.351815 65.982694 4.126002 -6.351822 65.982687 4.126012 -6.351819 65.982701 -0.000002 -0.000003 -0.000002 4.126009 -6.351816 65.982708 4.126005 -6.351826 65.982687 4.126024 -6.351806 65.982708 -0.000003 0.000001 -0.000005 4.126001 -6.351800 65.982701 4.126001 -6.351826 65.982680 4.126022 -6.351822 65.982715 -0.000003 -0.000000 0.000002 -29.411355 13.905510 54.916128 59.204066 -17.964029 -7.255693 -26.304489 7.536389 -20.216131 -1.089516 -0.000006 -0.000008 0.000000 -0.000001 -0.000000 -30.684075 12.261399 -12.739328 60.624609 11.958747 -7.597556 -26.598760 -9.177743 23.088737 0.001656 0.000020 0.003698 -0.000000 -0.000000 0.000000 
